<?xml version="1.0" encoding="UTF-8"?>
<svg xmlns="http://www.w3.org/2000/svg" xmlns:xlink="http://www.w3.org/1999/xlink" viewBox="0 0 32 32" width="32px" height="32px">
<g id="surface88054163">
<path style=" stroke:none;fill-rule:nonzero;fill:rgb(100%,100%,100%);fill-opacity:1;" d="M 15 2 C 7.832031 2 2 7.832031 2 15 C 2 22.167969 7.832031 28 15 28 C 22.167969 28 28 22.167969 28 15 C 28 7.832031 22.167969 2 15 2 Z M 15 4 C 21.085938 4 26 8.914062 26 15 C 26 21.085938 21.085938 26 15 26 C 8.914062 26 4 21.085938 4 15 C 4 8.914062 8.914062 4 15 4 Z M 18.222656 9.503906 C 16.535156 9.503906 15.164062 10.871094 15.164062 12.554688 C 15.164062 12.867188 15.273438 13.078125 15.273438 13.289062 C 12.746094 13.183594 10.644531 11.789062 9.171875 10 C 8.855469 10.421875 8.75 10.945312 8.75 11.472656 C 8.75 12.523438 9.160156 13.683594 10.003906 14.421875 C 9.445312 14.347656 9.171875 14.210938 8.75 14 C 8.75 15.472656 9.6875 16.449219 11.058594 16.765625 C 11.058594 16.765625 10.53125 16.871094 10.214844 16.871094 C 9.976562 16.871094 9.6875 16.765625 9.6875 16.765625 C 10.109375 17.921875 11.160156 18.867188 12.53125 18.867188 C 11.480469 19.605469 10.109375 20 8.738281 20 L 8 20 C 8.75 21 10.5 21.5 12.632812 21.503906 C 18.214844 21.503906 21.273438 16.871094 21.273438 12.871094 L 21.273438 12.449219 C 21.800781 12.027344 22.324219 11.5 22.75 10.871094 C 22.117188 11.1875 21.59375 11.289062 20.960938 11.394531 C 21.59375 10.972656 22.117188 10.445312 22.328125 9.710938 C 21.800781 10.023438 21.171875 10.34375 20.433594 10.449219 C 19.90625 9.820312 19.066406 9.503906 18.222656 9.503906 Z M 18.222656 9.503906 "/>
</g>
</svg>
